<?xml version="1.0" standalone="no"?>
<!DOCTYPE svg PUBLIC "-//W3C//DTD SVG 20010904//EN"
 "http://www.w3.org/TR/2001/REC-SVG-20010904/DTD/svg10.dtd">
<svg version="1.0" xmlns="http://www.w3.org/2000/svg"
 width="800.000000pt" height="800.000000pt" viewBox="0 0 800.000000 800.000000"
 preserveAspectRatio="xMidYMid meet">
<metadata>
Created by potrace 1.14, written by Peter Selinger 2001-2017
</metadata>
<g transform="translate(0.000000,800.000000) scale(0.100000,-0.100000)"
fill="#000000" stroke="none">
<path d="M20 7981 c0 -10 14 -35 30 -56 56 -71 48 -123 -17 -110 l-33 6 0
-396 c0 -393 0 -395 21 -395 36 0 59 -19 59 -49 0 -28 -30 -51 -66 -51 -12 0
-14 -51 -14 -355 1 -330 2 -355 18 -355 9 0 50 -34 91 -76 89 -93 86 -104 -32
-107 l-77 -2 0 -76 c0 -59 3 -78 15 -83 12 -4 15 -24 15 -94 0 -85 1 -89 25
-100 19 -9 25 -19 25 -44 0 -18 7 -42 15 -52 22 -29 19 -83 -4 -96 -27 -14
-83 32 -76 63 2 12 1 47 -4 77 -6 37 -9 -49 -10 -269 -1 -297 0 -325 16 -337
15 -10 18 -29 18 -104 1 -78 -1 -93 -17 -101 -16 -9 -18 -26 -18 -167 0 -108
4 -162 12 -170 9 -9 9 -18 0 -37 -9 -18 -12 -127 -12 -366 0 -293 2 -343 16
-364 16 -24 12 -65 -7 -65 -5 0 -9 -53 -9 -120 0 -94 4 -126 16 -145 14 -22
14 -27 0 -56 -21 -43 -22 -155 -1 -163 9 -3 15 -18 15 -37 0 -27 -2 -30 -15
-19 -13 11 -15 4 -15 -51 0 -40 4 -59 9 -50 10 15 31 7 31 -13 0 -7 11 -23 25
-36 23 -21 29 -23 47 -11 26 16 117 31 124 20 3 -5 1 -9 -3 -9 -5 0 -17 -22
-28 -50 -17 -43 -23 -50 -47 -50 -21 0 -28 -5 -28 -19 0 -29 15 -33 34 -12 10
11 30 22 44 26 15 3 37 16 49 27 20 19 26 20 47 9 13 -7 28 -23 34 -36 8 -18
61 -55 79 -55 12 0 -1 62 -17 83 -28 35 -25 57 9 70 21 8 37 27 57 69 18 37
34 58 45 58 9 0 22 7 29 16 11 13 8 20 -19 45 -18 16 -40 29 -50 29 -10 0 -24
7 -31 15 -11 13 -6 21 30 53 57 49 60 50 98 45 31 -5 32 -7 26 -38 -3 -19 0
-46 10 -68 13 -33 19 -37 50 -37 30 0 36 -4 36 -21 0 -12 -11 -32 -25 -45 -35
-32 -31 -49 13 -60 35 -9 37 -11 34 -43 -6 -53 18 -122 55 -164 41 -46 44 -83
7 -97 -33 -13 -90 -74 -98 -105 -5 -18 -13 -25 -31 -25 -84 0 -104 66 -38 128
20 17 39 32 44 32 13 0 29 36 29 63 0 17 -7 26 -22 30 -30 8 -37 1 -44 -44 -8
-49 -26 -69 -63 -69 -55 0 -70 -59 -26 -100 33 -31 33 -72 1 -94 -32 -20 -40
-49 -26 -91 8 -24 19 -37 36 -41 14 -4 36 -24 50 -45 19 -31 30 -39 54 -39 40
0 47 -18 17 -47 l-25 -25 -58 21 c-33 12 -69 33 -81 46 -20 21 -25 22 -58 11
-20 -7 -42 -24 -49 -37 -6 -13 -27 -29 -46 -35 -19 -7 -35 -16 -34 -20 1 -23
36 -85 54 -96 11 -7 27 -34 35 -59 10 -30 24 -50 40 -57 34 -16 31 -39 -10
-78 -43 -42 -86 -45 -139 -9 -38 26 -52 30 -93 27 -20 -2 -23 -7 -23 -47 0
-31 -6 -51 -19 -64 -25 -25 -82 -36 -109 -22 -12 6 -25 11 -31 11 -8 0 -11
-65 -11 -200 0 -173 2 -200 15 -200 9 0 33 -18 53 -41 l38 -41 52 10 c44 8 56
6 82 -10 42 -25 37 -53 -10 -53 -34 0 -35 -2 -38 -40 -5 -52 -17 -65 -63 -65
-21 0 -49 -5 -62 -11 -18 -8 -30 -8 -46 0 -20 11 -21 9 -21 -28 0 -22 9 -55
20 -74 16 -27 18 -40 10 -61 -5 -14 -14 -26 -20 -26 -7 0 -10 -164 -10 -495
l0 -495 1766 0 c1563 0 1765 2 1754 15 -10 12 -9 16 4 21 23 9 49 -4 42 -21
-5 -13 251 -15 2214 -15 l2220 0 0 70 c0 63 -2 70 -20 70 -26 0 -26 30 0 37
20 5 20 14 20 645 0 731 3 702 -76 806 -20 26 -36 63 -43 100 -7 35 -20 67
-31 77 -11 10 -20 24 -20 32 0 7 -9 30 -20 50 -11 21 -20 45 -20 53 0 9 -16
40 -35 69 -20 30 -34 60 -31 67 3 7 -2 18 -10 24 -17 15 -19 43 -1 37 6 -2 11
-12 11 -21 -2 -21 25 -20 54 3 12 11 22 21 22 24 0 3 -18 8 -40 12 -41 7 -49
21 -34 59 7 18 48 12 74 -10 8 -7 27 -15 41 -19 23 -6 27 -3 33 19 7 29 57 48
91 36 16 -6 19 -15 16 -46 -1 -22 -7 -47 -12 -57 -7 -12 -4 -23 11 -39 l21
-22 -3 138 c-3 137 -3 139 -29 158 -35 26 -68 16 -76 -23 -6 -33 -20 -37 -38
-12 -11 15 -19 11 -70 -42 l-58 -59 -30 18 c-23 13 -32 14 -38 4 -8 -12 19
-68 33 -68 11 0 10 -28 -1 -35 -10 -5 -41 48 -41 71 0 7 -12 23 -27 36 -27 22
-59 109 -48 128 3 4 -1 11 -7 14 -7 3 -2 3 11 0 18 -5 29 0 41 16 21 28 40 19
40 -21 0 -22 5 -29 20 -29 18 0 40 26 40 49 0 5 -12 16 -27 23 -25 12 -28 19
-28 63 0 46 2 51 32 65 30 14 31 17 26 60 -5 40 -2 49 25 78 29 31 50 87 38
99 -3 3 -26 0 -51 -7 -51 -14 -69 -6 -79 36 -5 19 0 33 19 55 35 42 33 68 -6
76 -17 3 -37 16 -46 29 -13 20 -24 24 -68 24 -78 0 -77 -13 8 -133 15 -20 16
-30 7 -46 -12 -23 -46 -28 -53 -8 -2 6 0 25 6 40 5 15 7 30 5 33 -9 9 -159 -9
-175 -22 -17 -11 -17 -15 0 -61 23 -63 22 -67 -10 -46 -27 17 -133 101 -143
114 -3 4 -28 18 -56 32 -51 26 -84 52 -84 65 0 4 10 12 23 17 17 8 22 18 22
45 0 49 11 62 46 55 22 -5 31 -2 36 11 7 19 -21 46 -41 38 -20 -8 -86 25 -86
42 0 13 3 14 13 5 17 -14 74 43 79 79 2 21 -1 25 -19 23 -13 -2 -23 2 -23 7 0
16 25 11 78 -15 39 -20 52 -32 57 -55 4 -20 13 -30 25 -30 28 0 31 13 9 46
-23 35 -24 60 -3 109 8 21 14 52 13 69 -4 55 0 66 22 66 14 0 24 -10 32 -31
11 -27 16 -30 42 -25 65 11 78 16 97 33 18 16 21 16 51 0 37 -19 59 -18 86 7
21 20 62 16 113 -10 49 -25 64 -90 30 -128 -10 -12 -25 -36 -32 -55 -13 -33
-13 -34 20 -61 36 -29 27 -30 115 11 20 10 32 24 35 44 l5 29 30 -32 c16 -18
38 -32 47 -32 16 0 18 14 18 154 l0 155 -57 11 c-48 10 -61 10 -84 -4 -32 -19
-61 -20 -106 -4 -27 10 -38 9 -65 -4 -42 -20 -78 -8 -78 25 0 48 53 72 176 82
49 4 109 14 134 21 l46 15 17 97 c10 53 17 103 17 110 0 25 -55 0 -92 -42
l-37 -41 4 47 c2 26 -1 50 -6 53 -5 4 -9 15 -9 25 0 19 -32 36 -50 25 -11 -7
-14 -58 -3 -69 4 -4 13 -28 19 -53 11 -43 10 -48 -12 -70 -13 -12 -30 -23 -39
-23 -25 0 -55 19 -55 35 0 18 -39 45 -66 45 -23 0 -34 17 -34 55 0 13 -4 27
-10 30 -6 3 -10 21 -10 40 0 39 -11 49 -46 41 -15 -4 -24 -14 -24 -27 0 -14
-13 -25 -47 -40 -30 -13 -49 -16 -51 -10 -2 6 -11 20 -21 32 -16 20 -20 21
-56 9 -34 -11 -40 -11 -51 4 -9 13 -9 24 -1 46 9 24 8 35 -6 59 -9 16 -17 42
-17 58 0 29 -33 62 -92 92 -34 17 -41 34 -26 66 9 21 8 28 -7 45 -10 11 -23
20 -30 20 -15 0 -35 -43 -35 -75 0 -31 -32 -50 -60 -35 -11 6 -20 19 -20 28 0
10 -6 26 -13 36 -13 17 -15 17 -46 2 -48 -25 -50 -44 -9 -80 20 -17 42 -48 49
-68 11 -33 11 -40 -5 -57 -10 -11 -38 -28 -63 -37 l-44 -17 -28 27 c-23 22
-30 24 -40 13 -9 -11 -6 -20 10 -41 22 -28 20 -56 -5 -56 -9 0 -23 -11 -31
-24 -18 -27 -62 -46 -105 -46 -36 0 -80 44 -80 81 0 40 -14 43 -50 9 -30 -28
-70 -40 -70 -22 0 24 65 122 105 160 37 35 52 43 71 38 41 -11 41 -35 1 -73
-56 -51 -47 -78 21 -62 46 10 71 44 65 90 -5 34 -2 39 26 53 17 9 31 18 31 19
0 2 -9 20 -20 42 -26 52 -25 79 5 119 14 18 25 37 25 42 1 24 63 75 130 106
134 64 150 69 224 67 39 -1 129 0 199 3 134 4 140 3 192 -44 22 -21 50 -20 50
1 0 27 52 54 112 59 38 3 68 12 88 27 33 25 105 45 159 45 l36 0 0 49 c0 46
-1 48 -26 43 -14 -2 -43 3 -64 13 -39 17 -39 17 -85 -10 -44 -25 -53 -27 -168
-26 -67 1 -151 2 -187 2 -37 0 -74 6 -86 14 -17 11 -25 11 -54 -1 -19 -9 -46
-12 -66 -8 -24 4 -40 0 -62 -16 -39 -29 -76 -24 -80 12 -5 39 13 65 52 78 29
9 34 16 39 51 6 46 62 136 89 145 10 3 32 25 48 50 35 50 56 64 99 64 42 0 66
37 57 90 -5 33 0 49 30 106 30 53 48 73 93 102 31 19 69 49 84 66 26 28 28 37
25 91 -2 44 2 66 15 85 9 13 17 38 17 55 0 23 9 38 41 66 l41 35 -21 42 c-37
73 -21 121 25 71 13 -14 18 -34 17 -62 -1 -39 18 -77 38 -77 4 0 19 25 33 55
14 30 32 58 41 61 13 5 15 29 15 151 l0 145 -30 37 c-87 106 -109 129 -154
160 l-49 33 -20 -26 c-22 -31 -57 -34 -81 -7 -10 11 -26 47 -37 81 -10 34 -26
71 -34 83 -17 25 -20 80 -5 108 8 14 7 25 -5 43 -18 27 -11 52 31 115 18 28
24 48 20 64 -7 30 15 62 53 75 27 10 30 8 41 -19 9 -21 19 -29 37 -29 13 0 40
-7 60 -15 47 -20 70 -12 79 28 3 17 13 36 20 42 11 8 12 18 4 45 -13 44 -6 64
25 78 29 13 30 21 11 65 -22 52 -49 71 -91 63 -88 -17 -118 73 -55 160 32 44
105 58 144 29 11 -8 23 -15 28 -15 4 0 8 128 8 285 l0 285 -61 0 c-56 0 -60
-2 -54 -20 9 -27 -24 -27 -53 0 -21 20 -35 20 -625 20 -533 0 -606 -2 -617
-15 -20 -24 0 -38 33 -26 18 7 36 7 52 1 21 -8 25 -16 25 -49 0 -41 11 -51 55
-51 29 0 50 -31 33 -48 -7 -7 -26 -12 -44 -12 -26 0 -36 -7 -59 -42 -16 -24
-38 -53 -49 -65 -12 -12 -21 -35 -21 -50 0 -21 -4 -27 -17 -25 -9 1 -19 -2
-23 -8 -10 -16 -20 -12 -38 19 -17 30 -17 30 10 44 16 7 26 20 24 28 -8 31 -8
85 0 100 11 21 -10 39 -54 48 -64 13 -76 103 -15 119 17 4 33 13 36 20 5 17
-359 17 -376 0 -9 -9 -21 -9 -50 0 -27 8 -147 12 -371 12 -315 0 -331 -1 -331
-18 0 -24 -27 -48 -62 -57 -17 -4 -28 -15 -30 -28 -2 -12 -10 -22 -18 -22 -15
0 -26 25 -35 88 l-6 37 -74 0 c-41 0 -75 -3 -75 -7 0 -3 7 -14 16 -24 13 -14
13 -20 2 -38 -7 -12 -19 -21 -26 -21 -13 0 -82 69 -82 83 0 4 -38 7 -84 7
l-85 0 15 -27 14 -28 -48 -3 c-68 -5 -106 5 -132 33 -19 20 -33 25 -71 25 -29
0 -51 -6 -59 -15 -7 -8 -15 -13 -19 -11 -3 2 -19 -1 -35 -8 l-29 -12 28 -22
c34 -27 47 -27 111 -1 51 21 52 21 77 3 14 -11 29 -31 32 -47 7 -30 39 -54 50
-37 9 15 68 12 93 -6 31 -21 27 -39 -12 -58 -26 -12 -33 -21 -29 -36 10 -37
-17 -21 -33 20 -10 25 -23 40 -33 40 -19 0 -54 -34 -64 -61 -5 -17 -62 -33
-78 -23 -5 3 -9 13 -9 23 0 16 -11 20 -62 24 -35 3 -72 7 -83 9 -18 3 -20 -2
-17 -35 2 -21 -2 -44 -8 -52 -15 -18 -51 -20 -67 -4 -9 9 -19 5 -42 -14 -25
-20 -37 -24 -58 -18 -16 4 -72 6 -126 3 -125 -6 -155 15 -108 74 15 19 17 31
11 53 -5 20 -4 36 6 52 7 13 21 40 30 59 33 73 82 101 104 61 17 -32 11 -66
-15 -91 -15 -14 -25 -35 -25 -50 0 -15 -9 -39 -20 -53 -40 -51 -16 -70 41 -33
22 15 44 24 49 21 6 -4 19 -4 29 0 28 8 36 57 16 94 -18 36 -10 60 28 80 20
11 29 10 61 -8 47 -27 58 -26 85 5 l22 25 -23 24 -23 25 -233 0 c-183 0 -233
-3 -230 -12 3 -7 23 -15 46 -18 l42 -5 -25 -50 c-13 -27 -25 -58 -25 -67 0 -9
-9 -19 -20 -23 -21 -7 -53 6 -50 21 3 19 -18 14 -23 -6 -3 -14 -13 -20 -31
-20 -35 0 -35 -31 0 -47 19 -9 30 -9 44 -1 14 9 23 6 49 -21 57 -58 34 -91
-64 -91 -53 0 -57 1 -77 36 -23 40 -54 56 -80 43 -15 -8 -16 -14 -3 -55 17
-57 12 -71 -24 -72 -16 0 -45 -8 -66 -16 -54 -23 -78 -20 -102 12 -35 47 -39
111 -12 187 18 50 20 68 11 77 -7 7 -12 18 -12 26 0 18 -40 51 -63 52 -10 0
-28 11 -41 25 l-23 25 -1334 0 c-1116 0 -1330 -2 -1314 -13 20 -15 17 -50 -12
-142 -20 -65 -28 -73 -53 -50 -24 22 -25 33 -3 57 14 16 15 24 5 52 -16 43
-15 56 5 78 16 18 13 19 -98 16 -105 -3 -115 -5 -123 -24 -8 -18 -16 -21 -45
-17 -53 7 -78 -24 -83 -104 -2 -34 -10 -68 -17 -77 -12 -14 -16 -14 -43 6 -17
11 -36 35 -43 52 -12 28 -11 33 7 53 17 18 19 29 14 67 l-7 46 -125 0 c-114 0
-124 -1 -124 -19z m1484 -17 c9 -8 16 -26 16 -40 0 -22 4 -24 44 -24 56 0 76
-24 76 -91 0 -33 5 -49 16 -53 26 -10 5 -26 -35 -26 -36 0 -39 -3 -55 -44 -11
-30 -15 -56 -10 -85 8 -47 -6 -58 -51 -41 -24 9 -27 14 -22 44 6 38 -16 111
-42 141 -32 35 -33 45 -10 81 20 33 21 37 6 46 -22 12 -22 66 0 90 20 22 46
23 67 2z m5884 4 c36 -36 -14 -147 -55 -122 -24 15 -29 78 -8 110 17 26 44 31
63 12z m-6898 -54 c0 -8 -4 -14 -9 -14 -6 0 -9 9 -8 19 1 22 17 18 17 -5z
m626 -30 c8 -30 -8 -44 -38 -36 -41 10 -35 62 6 62 19 0 27 -7 32 -26z m5299
-11 c16 -55 15 -55 -18 -48 -45 10 -53 20 -39 50 16 34 48 33 57 -2z m-1328
-77 c-7 -18 -52 -22 -63 -5 -4 7 4 20 17 30 20 15 26 16 38 4 7 -7 11 -21 8
-29z m1823 -10 c4 -25 10 -30 40 -34 72 -8 83 -27 51 -90 -25 -49 -54 -74 -82
-70 -26 3 -37 34 -40 107 -1 25 -6 54 -11 64 -13 25 0 59 20 55 10 -2 19 -16
22 -32z m-703 8 c8 -22 -20 -47 -46 -39 -19 6 -20 8 -5 31 19 27 42 31 51 8z
m-996 -34 c10 -6 19 -18 19 -26 0 -13 -6 -15 -27 -9 -35 8 -35 9 -27 29 7 19
9 19 35 6z m393 -39 c30 -33 1 -80 -39 -65 -18 7 -20 55 -3 72 16 16 22 15 42
-7z m-4837 -33 c31 -50 34 -90 8 -118 -10 -11 -16 -22 -14 -23 2 -2 20 -14 39
-27 63 -43 75 -78 44 -125 -26 -39 -6 -139 37 -184 l22 -23 16 21 c22 29 37
14 43 -42 5 -41 2 -53 -17 -75 -26 -31 -84 -36 -112 -10 -10 9 -33 30 -51 47
-19 17 -52 35 -74 40 -22 5 -47 16 -57 25 -22 20 -31 12 -31 -29 0 -31 41
-118 61 -130 4 -3 6 -25 3 -48 -4 -27 -1 -48 8 -59 12 -17 15 -17 45 1 17 11
33 30 35 42 2 17 15 25 51 36 43 12 52 12 73 -2 13 -8 31 -29 39 -45 14 -27
14 -33 0 -60 -9 -17 -13 -40 -9 -54 9 -37 -3 -62 -37 -76 -26 -11 -29 -16 -23
-45 5 -26 1 -34 -20 -48 -33 -22 -33 -22 -41 11 -3 16 -28 50 -56 76 -42 39
-52 45 -69 36 -24 -13 -26 -43 -5 -60 20 -17 19 -30 -7 -57 -18 -19 -32 -23
-85 -23 -56 0 -64 3 -78 25 -51 83 -46 79 -63 61 -15 -14 -14 -19 5 -53 11
-21 23 -50 27 -65 4 -20 13 -27 34 -30 37 -4 39 -43 2 -44 -14 0 -44 -4 -66
-8 -41 -7 -41 -8 -47 -59 -3 -29 -8 -59 -12 -68 -6 -15 -2 -15 39 -2 40 13 48
13 77 -1 18 -9 41 -16 51 -16 32 0 81 -56 74 -84 -9 -37 24 -60 79 -54 31 4
50 1 59 -7 15 -15 13 -112 -2 -127 -20 -20 -61 1 -82 41 -11 22 -24 42 -30 46
-5 3 -10 17 -10 30 0 34 -22 37 -123 14 -97 -21 -121 -36 -133 -83 -6 -26 -5
-27 14 -17 11 6 29 11 40 11 25 0 72 -37 67 -53 -3 -7 11 -22 30 -35 32 -20
48 -52 27 -52 -5 0 -14 -18 -21 -40 -11 -38 -31 -55 -31 -26 0 21 -50 50 -95
56 -40 5 -40 5 -76 82 -7 16 -23 35 -37 44 -23 15 -28 15 -59 0 l-33 -16 -47
43 c-84 75 -123 118 -123 133 0 9 12 38 28 66 26 48 27 50 8 63 -32 24 -5 85
65 146 76 65 85 101 38 139 -24 20 -33 37 -35 64 -2 20 -11 49 -20 65 -14 23
-15 34 -6 60 6 17 7 33 2 36 -9 6 -26 110 -21 135 5 27 20 34 71 31 29 -1 50
2 50 8 0 6 11 13 25 17 14 4 41 26 59 50 29 38 33 50 29 84 -3 22 -1 40 4 40
5 0 24 28 42 63 28 54 39 66 81 85 63 29 73 28 104 -9 27 -32 29 -39 26 -129
-1 -45 3 -59 19 -74 26 -24 28 -22 36 34 4 24 11 53 17 64 6 12 13 46 14 77 3
55 2 58 -31 83 -18 14 -43 26 -54 26 -38 0 -51 11 -51 45 0 43 29 69 70 63 27
-4 33 0 47 26 39 79 71 85 110 24z m2248 22 c22 -11 45 -27 51 -36 15 -19 6
-93 -14 -116 -33 -39 -65 -6 -55 55 5 34 3 37 -31 51 -39 16 -47 39 -18 55 23
14 22 14 67 -9z m4603 -23 c3 -21 -1 -27 -16 -27 -30 0 -48 26 -32 45 19 23
45 14 48 -18z m-7473 -28 c33 -40 31 -88 -4 -105 -31 -16 -46 -9 -71 31 -24
39 -25 63 -3 87 24 26 48 22 78 -13z m230 11 c17 -11 42 -21 55 -23 27 -4 40
-27 16 -27 -9 0 -16 -4 -16 -10 0 -20 -45 -50 -75 -50 -50 0 -75 24 -75 74 0
23 3 46 7 49 13 13 56 7 88 -13z m4165 6 c0 -7 -5 -28 -11 -46 -11 -29 -9 -34
15 -57 47 -44 17 -70 -32 -28 -22 18 -31 34 -30 53 1 15 -1 37 -6 50 -6 18 -3
24 16 31 33 14 48 13 48 -3z m634 -2 c15 -40 0 -94 -26 -94 -14 0 -78 62 -78
76 0 32 92 48 104 18z m726 -3 c0 -24 -22 -42 -39 -32 -11 7 -10 12 0 30 17
26 39 27 39 2z m-460 -5 c0 -16 -18 -31 -27 -22 -8 8 5 36 17 36 5 0 10 -6 10
-14z m-758 -33 c19 -17 24 -43 9 -43 -15 0 -41 30 -41 46 0 18 9 18 32 -3z
m-2850 -15 c24 -37 21 -62 -9 -87 -41 -35 -43 -48 -21 -105 12 -32 15 -52 9
-60 -14 -17 -94 -35 -171 -38 l-65 -3 -19 73 c-27 106 -4 147 59 106 42 -27
82 2 99 71 12 49 35 68 75 61 19 -3 38 -11 43 -18z m4152 -118 c4 -73 4 -73
-34 -113 -46 -50 -61 -46 -95 27 -32 67 -30 96 8 114 15 7 27 18 27 23 0 5 12
22 26 36 25 25 26 25 45 6 15 -14 20 -37 23 -93z m424 94 c29 -8 24 -26 -11
-35 -28 -8 -54 11 -42 31 7 11 20 12 53 4z m-155 -23 c18 -18 -12 -59 -55 -75
-21 -9 -58 -16 -82 -16 -72 0 -91 51 -24 64 18 4 44 15 58 27 26 21 82 21 103
0z m689 -22 c17 1 39 -9 60 -28 l33 -29 -25 -10 c-14 -6 -33 -13 -43 -16 -10
-3 -25 -22 -33 -42 -8 -20 -27 -54 -41 -75 -15 -23 -23 -47 -20 -59 3 -11 0
-20 -6 -20 -12 0 -77 69 -77 81 0 19 -42 46 -64 42 -18 -4 -25 1 -34 24 -13
36 -24 108 -16 116 3 3 21 -3 40 -14 47 -26 64 -24 103 12 29 26 39 30 65 24
17 -4 43 -7 58 -6z m-1964 -53 c-4 -25 -43 -34 -51 -13 -3 8 1 24 10 36 12 18
18 20 29 10 8 -7 14 -22 12 -33z m-334 19 c33 -14 80 -75 57 -75 -32 0 -111
57 -111 80 0 14 12 12 54 -5z m540 -1 c21 -20 21 -70 0 -78 -9 -3 -27 -6 -40
-6 -21 0 -24 5 -24 34 0 32 20 66 40 66 5 0 16 -7 24 -16z m2480 -42 c3 -5 -2
-22 -10 -38 -9 -17 -14 -42 -10 -61 3 -20 0 -36 -7 -40 -7 -5 -18 -20 -26 -35
-15 -30 -53 -44 -79 -29 -14 8 -13 11 13 22 40 18 43 24 37 74 -4 36 0 49 23
79 26 35 48 45 59 28z m-1224 -44 c0 -18 7 -42 15 -52 29 -38 6 -85 -28 -58
-18 14 -67 21 -73 10 -4 -6 5 -21 20 -34 32 -30 33 -53 4 -89 -18 -23 -19 -30
-9 -47 16 -25 5 -112 -15 -129 -24 -20 -64 -2 -71 32 -4 23 -15 35 -37 44 -40
17 -60 41 -76 88 -11 34 -14 37 -50 37 -28 0 -43 6 -54 21 -19 28 -12 45 43
98 55 54 122 76 159 53 l22 -14 -31 -35 c-16 -19 -28 -37 -25 -40 9 -9 96 21
96 32 0 6 -5 16 -11 22 -18 18 8 52 54 73 59 26 67 25 67 -12z m-1673 4 c6 -4
16 -20 22 -35 10 -26 10 -27 -12 -16 -41 21 -59 42 -45 51 16 10 20 10 35 0z
m105 -4 c29 -17 54 -42 68 -67 6 -12 20 -21 31 -21 35 0 58 -19 84 -70 14 -28
29 -50 33 -50 4 1 16 15 27 32 15 22 42 39 103 64 74 31 85 33 105 20 12 -8
40 -17 62 -21 35 -5 42 -11 54 -43 7 -20 15 -51 18 -68 4 -25 12 -33 41 -42
26 -8 39 -8 49 0 12 10 28 8 66 -7 13 -6 20 0 28 24 12 35 89 83 89 56 0 -8
11 -31 25 -51 17 -25 25 -50 25 -79 0 -56 -19 -63 -82 -30 -45 23 -49 24 -54
8 -4 -10 -15 -42 -27 -70 l-21 -53 22 -23 c14 -15 22 -36 22 -58 0 -39 15 -59
42 -59 24 0 33 25 20 55 -15 32 1 83 38 125 16 18 30 37 30 41 0 5 16 -1 35
-12 38 -23 47 -57 20 -79 -16 -14 -21 -75 -6 -85 6 -3 16 2 23 10 33 39 41 45
63 45 16 0 26 -7 30 -22 8 -25 44 -68 57 -68 4 0 8 15 8 34 0 26 7 39 28 54
l27 21 -27 28 c-33 34 -35 47 -10 65 25 17 82 127 75 144 -3 8 0 14 6 14 6 0
11 -10 11 -23 0 -13 14 -36 30 -52 18 -17 35 -48 42 -72 7 -29 21 -50 44 -68
67 -51 76 -66 71 -114 -3 -23 -15 -57 -27 -73 -15 -20 -20 -39 -17 -56 3 -15
-1 -41 -8 -58 -14 -34 -42 -44 -121 -44 -34 0 -47 5 -63 26 -12 15 -21 34 -21
42 0 9 -7 24 -17 34 -15 17 -17 17 -35 2 -10 -10 -18 -21 -18 -27 0 -5 -11
-22 -25 -39 l-25 -29 27 -51 c15 -28 44 -63 67 -80 48 -35 65 -62 65 -103 0
-25 -8 -35 -43 -57 -26 -17 -58 -28 -78 -28 -42 0 -61 -14 -83 -62 -20 -43
-62 -65 -93 -49 -29 15 -82 14 -88 -2 -3 -8 7 -33 23 -56 25 -39 30 -42 63
-36 57 9 130 -55 130 -114 0 -23 -10 -36 -90 -117 -22 -22 -40 -44 -40 -49 0
-4 11 -16 25 -27 30 -23 33 -68 8 -94 -14 -14 -18 -36 -19 -98 -1 -63 -9 -102
-33 -172 -17 -50 -31 -107 -31 -125 0 -19 -9 -47 -20 -64 -12 -19 -20 -47 -20
-75 0 -37 -8 -57 -47 -115 -42 -62 -48 -77 -50 -129 -1 -49 -6 -63 -27 -82
-28 -26 -25 -60 5 -69 40 -13 60 -185 25 -224 -10 -11 -22 -41 -27 -66 -13
-67 -43 -103 -96 -111 -27 -4 -49 -14 -58 -26 -18 -26 -59 -26 -94 -1 -46 35
-67 36 -95 8 -29 -29 -43 -31 -68 -8 -23 21 -34 11 -12 -12 37 -37 18 -90 -22
-61 -9 7 -26 11 -36 8 -29 -7 -22 22 24 98 40 68 42 70 74 64 22 -4 35 -1 40
8 5 8 26 24 47 37 20 12 37 30 37 39 0 9 3 40 6 68 6 46 4 53 -14 58 -26 9
-52 64 -52 110 0 20 -3 36 -7 36 -5 1 -42 2 -83 3 l-75 2 -7 -65 c-20 -204
-30 -324 -33 -395 -1 -44 -8 -136 -14 -205 -12 -115 -11 -150 5 -265 8 -59 6
-99 -6 -103 -5 -2 -10 -10 -10 -18 0 -8 -5 -14 -11 -14 -7 0 -9 -9 -6 -22 4
-12 2 -27 -3 -34 -6 -6 -19 -46 -30 -88 -25 -98 -74 -179 -170 -281 -144 -153
-200 -216 -241 -273 -23 -31 -69 -86 -101 -122 -116 -126 -168 -185 -193 -216
-14 -18 -58 -48 -97 -68 -90 -44 -176 -104 -292 -204 -128 -110 -185 -152
-207 -152 -12 0 -55 37 -104 87 -47 48 -135 126 -197 173 -140 107 -167 139
-174 211 -3 30 -16 101 -29 159 -43 193 -59 330 -49 433 18 185 10 524 -16
662 -5 28 -16 88 -25 135 -16 84 -56 169 -122 256 -30 40 -95 181 -126 275
-59 176 -87 346 -87 528 0 70 -3 130 -6 134 -4 3 -8 43 -10 89 -5 115 -9 125
-48 139 l-35 13 3 84 c4 95 -3 136 -25 140 -8 1 -20 -12 -27 -30 -8 -18 -18
-43 -23 -55 -12 -33 -25 -29 -75 22 -45 47 -56 78 -29 89 8 3 15 16 15 30 0
28 16 42 44 37 10 -1 27 7 37 18 20 21 51 19 43 -4 -3 -8 7 -15 28 -19 20 -4
47 -21 67 -41 18 -19 36 -35 40 -35 18 0 71 130 80 200 32 223 43 342 33 352
-17 17 -125 -100 -141 -153 -21 -70 -30 -89 -42 -89 -7 0 -9 10 -5 28 4 15 18
83 30 152 55 291 58 300 84 300 13 0 33 5 45 12 12 6 40 11 62 9 36 -2 45 3
90 49 54 56 116 100 140 100 8 0 15 4 15 10 0 5 17 9 38 9 20 0 73 4 117 10
149 19 342 30 640 35 212 4 280 16 361 66 24 15 38 19 51 12 10 -5 59 -12 108
-14 78 -5 98 -10 155 -40 36 -19 94 -46 129 -59 39 -15 66 -31 69 -42 2 -10
18 -25 34 -33 21 -11 29 -21 25 -34 -3 -11 1 -24 9 -31 8 -6 14 -22 14 -34 0
-12 6 -28 14 -34 8 -7 17 -24 21 -39 4 -15 11 -30 17 -34 15 -9 47 -161 58
-276 5 -52 12 -102 15 -112 3 -10 6 -49 6 -86 1 -63 25 -203 49 -279 19 -63
31 -198 25 -299 -4 -84 -10 -114 -30 -154 -28 -55 -31 -95 -13 -153 10 -35 22
-44 50 -40 16 2 -5 -29 -23 -34 -10 -4 -19 -13 -19 -21 0 -18 15 -18 33 1 8 8
17 11 20 8 4 -3 18 2 33 11 14 10 28 15 31 12 13 -12 63 75 63 108 0 14 5 28
12 32 7 5 9 0 6 -14 -8 -28 19 -53 33 -31 5 8 12 29 15 47 3 17 12 32 19 32 7
0 30 12 51 26 l38 26 17 -20 c15 -19 18 -19 38 -6 11 8 21 20 21 26 0 6 8 20
17 30 10 11 17 39 19 70 1 28 7 55 12 60 6 6 7 22 1 41 -5 18 -9 44 -9 59 0
16 -3 28 -7 28 -5 0 -9 23 -10 51 -1 30 -9 62 -20 77 -10 15 -21 34 -24 42 -5
11 -10 8 -18 -12 -6 -16 -12 -28 -14 -28 -8 0 2 127 12 153 6 16 11 43 11 62
0 20 6 35 15 39 8 3 15 14 15 24 0 10 6 24 12 30 10 10 10 17 0 32 -7 12 -8
21 -2 25 6 4 10 59 10 126 0 100 -4 133 -25 202 -15 45 -30 90 -35 99 -6 10
-10 31 -10 46 0 16 -13 47 -30 70 -16 23 -29 52 -29 64 1 13 -1 30 -5 39 -4
10 -3 20 3 24 32 19 -6 66 -76 94 -62 24 -73 42 -50 81 14 23 15 34 7 50 -6
11 -14 20 -19 20 -15 0 -69 55 -85 89 -13 24 -15 36 -7 44 17 17 13 47 -6 48
-29 2 -48 -2 -51 -12 -8 -21 -49 -7 -76 26 -16 19 -38 35 -48 35 -10 0 -43 14
-73 31 -75 42 -93 78 -41 80 21 0 21 0 -1 16 -26 17 -31 53 -8 53 8 0 25 -6
37 -12z m2332 -17 c18 -17 35 -21 88 -21 122 0 243 -80 141 -92 -30 -4 -44 0
-67 19 -19 16 -36 22 -50 18 -12 -3 -33 -8 -48 -11 -32 -7 -36 -19 -10 -33 15
-9 15 -10 1 -11 -9 0 -19 6 -22 13 -3 7 -31 19 -63 26 -106 23 -131 48 -97 96
16 22 24 25 61 22 26 -3 52 -13 66 -26z m-6900 -14 c18 -13 17 -15 -11 -47
-26 -29 -32 -31 -51 -21 -24 13 -29 50 -10 69 16 16 50 15 72 -1z m1204 -69
c-6 -18 -28 -21 -28 -4 0 9 7 16 16 16 9 0 14 -5 12 -12z m-1470 -19 c-2 -6
-8 -10 -13 -10 -5 0 -11 4 -13 10 -2 6 4 11 13 11 9 0 15 -5 13 -11z m1263 -9
c20 -11 49 -60 49 -83 0 -22 -73 -49 -103 -38 -36 14 -55 73 -33 106 18 27 53
33 87 15z m5401 -1 c15 -8 19 -17 14 -39 -6 -34 1 -41 75 -65 70 -23 89 -17
89 29 0 46 13 52 51 25 29 -20 31 -25 26 -64 -5 -34 -2 -46 13 -60 24 -22 77
-15 119 14 38 27 45 26 70 -5 14 -18 21 -41 21 -72 0 -49 11 -91 41 -160 23
-51 23 -47 3 -67 -11 -11 -26 -14 -50 -9 -34 6 -34 6 -34 -33 0 -25 9 -52 26
-76 14 -21 29 -59 33 -86 4 -27 17 -57 29 -69 12 -12 22 -28 22 -35 0 -7 11
-28 24 -45 20 -28 22 -38 15 -76 -16 -85 12 -193 66 -258 l23 -27 27 29 28 29
-16 43 c-18 45 -22 80 -11 91 12 12 59 -22 77 -56 10 -19 35 -44 55 -55 21
-11 48 -32 60 -45 l23 -25 -34 -21 c-19 -11 -40 -21 -46 -21 -14 0 -57 -27
-86 -53 -11 -10 -34 -27 -52 -38 -22 -14 -36 -34 -48 -69 -22 -65 -33 -73 -95
-65 -38 5 -56 3 -75 -9 -18 -12 -41 -15 -93 -12 -37 3 -75 8 -83 11 -28 11
-64 115 -40 115 6 0 11 15 13 33 3 28 6 32 30 29 21 -3 30 3 42 27 21 40 20
68 -3 81 -17 9 -22 5 -37 -25 -9 -19 -18 -35 -19 -35 -2 0 -29 24 -59 53 -45
43 -56 59 -56 85 0 22 -5 32 -15 32 -8 0 -37 16 -65 36 -40 29 -55 34 -79 29
-30 -6 -50 6 -78 51 -10 16 -13 17 -22 4 -6 -8 -10 -28 -9 -45 2 -62 -14 -82
-62 -75 -38 4 -46 68 -24 201 6 39 -9 79 -29 79 -7 0 -30 -14 -51 -30 -37 -28
-41 -29 -58 -13 -10 9 -18 19 -18 23 0 4 -18 26 -40 48 -46 46 -51 76 -18 117
14 18 21 40 20 60 -3 36 16 57 63 72 24 8 32 18 40 50 6 22 16 47 23 56 8 9
13 24 12 34 -4 30 -1 39 20 63 18 21 18 24 4 59 -27 60 -27 67 0 110 14 22 26
45 26 50 0 5 19 25 43 45 45 38 97 47 139 25z m-900 -30 c20 -19 35 -25 58
-21 34 5 71 -15 95 -52 21 -32 10 -56 -27 -56 -22 0 -41 12 -78 50 -27 28 -58
50 -69 50 -21 0 -46 34 -36 49 8 14 28 7 57 -20z m-3558 -25 c12 -33 6 -61
-18 -73 -34 -18 -59 -10 -71 23 -8 24 -6 31 14 47 28 23 67 25 75 3z m-666
-26 c7 -9 -1 -37 -29 -95 -41 -87 -66 -111 -98 -94 -32 17 -71 71 -71 97 0 14
-7 27 -15 30 -20 8 -19 43 0 51 9 3 24 -2 34 -11 24 -21 90 -24 105 -4 11 14
45 37 57 38 4 0 11 -6 17 -12z m732 -72 c-15 -15 -34 9 -26 31 7 17 8 17 22
-1 9 -13 11 -23 4 -30z m475 -6 c17 0 28 -31 16 -43 -7 -7 -19 -4 -35 7 -29
18 -36 52 -10 42 9 -3 22 -6 29 -6z m-1125 -26 c7 -7 6 -16 -5 -30 -14 -19
-15 -18 -35 6 -11 14 -20 27 -20 30 0 10 49 5 60 -6z m3441 3 c-1 -12 -15 -9
-19 4 -3 6 1 10 8 8 6 -3 11 -8 11 -12z m-3780 -34 c14 -38 8 -56 -24 -71 -24
-12 -31 -11 -52 2 -19 13 -22 20 -16 43 7 27 41 53 69 53 7 0 17 -12 23 -27z
m6467 -3 c4 -33 -17 -59 -48 -62 -23 -3 -25 0 -24 36 2 41 17 58 49 54 13 -2
21 -12 23 -28z m-5698 -65 c0 -25 -34 -53 -44 -36 -5 8 30 61 40 61 2 0 4 -11
4 -25z m-50 -81 c0 -30 -17 -64 -31 -64 -6 0 -7 5 -4 10 3 6 1 10 -4 10 -6 0
-11 7 -11 15 0 8 -4 15 -9 15 -5 0 -12 7 -15 16 -4 12 -2 15 9 10 8 -3 15 -1
15 4 0 9 31 19 43 13 4 -2 7 -15 7 -29z m5375 22 c23 -16 14 -46 -15 -46 -23
0 -35 22 -26 45 7 19 17 19 41 1z m-5426 -112 c10 -9 -11 -34 -28 -34 -24 0
-35 15 -27 36 4 11 13 13 28 8 13 -3 25 -8 27 -10z m741 -153 c14 -27 13 -31
-9 -31 -10 0 -21 9 -24 19 -9 35 16 43 33 12z m-557 -35 c3 -8 3 -17 0 -20 -7
-7 -33 13 -33 25 0 15 27 10 33 -5z m-113 -152 c14 -42 45 -46 62 -8 10 20 9
27 -2 34 -21 13 -5 23 17 12 10 -5 37 -13 60 -17 61 -10 70 -25 48 -82 -10
-26 -18 -60 -19 -77 -1 -20 -6 -31 -16 -32 -8 -1 -23 -2 -33 -3 -10 0 -22 -13
-28 -28 -30 -80 -91 -84 -134 -8 -10 17 -13 16 -37 -8 -27 -27 -58 -28 -89 0
-32 27 4 93 54 99 12 1 23 3 25 3 2 1 -4 8 -12 17 -9 8 -16 23 -16 32 0 18 54
102 73 114 16 10 34 -8 47 -48z m-1240 1 c0 -8 -4 -15 -10 -15 -5 0 -10 7 -10
15 0 8 5 15 10 15 6 0 10 -7 10 -15z m1043 -2 c26 -30 26 -80 -1 -113 -15 -18
-24 -21 -49 -16 -39 9 -48 30 -28 69 8 16 15 35 15 42 0 14 21 35 35 35 7 0
19 -8 28 -17z m-197 -74 c8 -14 -8 -30 -22 -21 -6 4 -15 18 -19 30 -6 21 -5
23 13 13 12 -6 24 -16 28 -22z m6134 -60 c16 -30 5 -49 -29 -49 -37 0 -47 24
-21 50 25 25 37 25 50 -1z m-136 -21 c6 -27 -6 -43 -28 -35 -12 5 -13 10 -3
31 15 32 23 33 31 4z m-1294 -47 c5 -11 10 -29 10 -40 0 -11 8 -24 18 -30 15
-9 16 -11 1 -26 -14 -14 -19 -14 -62 5 -55 25 -61 48 -21 85 32 30 40 31 54 6z
m-4147 -100 c7 -29 -16 -45 -42 -29 l-20 12 21 23 c23 25 33 23 41 -6z m-301
-28 c-3 -48 14 -66 59 -65 26 1 32 -5 46 -39 13 -33 19 -39 42 -37 22 3 28 -2
35 -29 6 -18 16 -35 23 -37 20 -8 65 16 59 31 -3 7 -4 13 -2 13 3 0 11 3 20 6
12 4 16 0 16 -15 0 -12 7 -36 16 -53 30 -58 -9 -175 -75 -220 -41 -29 -56 -56
-72 -134 -7 -34 -18 -68 -24 -77 -6 -8 -36 -17 -70 -21 l-61 -7 -17 36 c-9 19
-17 44 -17 55 0 12 -11 22 -35 30 -49 16 -62 42 -68 133 -3 43 -10 84 -16 90
-5 7 -11 26 -13 42 -3 27 0 30 30 33 40 4 59 -9 67 -49 4 -16 11 -29 15 -29
19 0 67 25 115 61 28 20 60 40 72 44 19 5 21 10 13 26 -6 11 -21 19 -35 19
-14 0 -36 13 -53 31 l-29 31 -71 -12 c-39 -6 -76 -9 -82 -5 -15 9 -12 61 5 75
8 7 15 27 15 44 0 37 16 62 45 69 42 10 50 3 47 -40z m5795 -39 c6 -17 -4 -64
-15 -64 -4 1 -22 14 -41 30 l-34 29 24 20 c25 20 55 14 66 -15z m-6289 -30
c43 -30 46 -51 13 -90 -19 -21 -31 -46 -31 -62 0 -16 -7 -37 -15 -48 -28 -37
-13 -124 20 -124 9 0 24 5 34 12 28 17 51 -5 51 -49 0 -27 4 -34 18 -31 12 3
16 12 15 33 -1 17 0 54 3 83 l5 52 40 0 c36 0 39 2 39 28 0 56 41 69 66 21 13
-25 14 -37 5 -57 -10 -21 -16 -23 -42 -18 l-31 6 7 -53 c4 -28 13 -64 21 -78
7 -15 16 -64 20 -110 4 -46 13 -93 20 -104 18 -25 17 -30 -1 -48 -12 -12 -21
-13 -43 -5 -24 9 -32 7 -56 -16 -16 -14 -32 -26 -36 -26 -11 0 -50 -68 -50
-86 0 -18 24 -18 40 1 7 8 27 15 46 15 22 0 38 7 48 22 14 20 18 21 56 8 55
-18 66 -35 74 -111 7 -73 4 -78 -52 -80 -15 -1 -20 -3 -11 -6 18 -4 29 -32 29
-76 0 -23 6 -31 30 -40 26 -10 36 -24 54 -79 4 -13 16 -18 44 -18 50 0 92 -36
92 -78 0 -33 -13 -47 -51 -57 -21 -5 -30 0 -53 30 -28 37 -48 40 -39 5 3 -11
-2 -35 -11 -54 -13 -27 -14 -40 -5 -65 14 -39 10 -43 -38 -48 -21 -2 -45 -11
-55 -20 -28 -25 -71 6 -54 40 56 106 54 100 39 139 -8 20 -13 47 -11 60 2 19
10 23 45 26 26 2 51 -3 67 -13 23 -15 25 -15 31 4 9 28 -1 41 -30 41 -27 0
-45 26 -45 64 0 14 -4 26 -9 26 -16 0 -66 -47 -81 -77 -8 -15 -23 -38 -33 -50
-11 -12 -23 -43 -28 -69 -5 -26 -11 -50 -14 -52 -3 -3 -26 -6 -52 -8 -27 -1
-52 -2 -56 -3 -13 -1 42 -64 67 -76 15 -7 24 -26 32 -65 13 -68 10 -81 -26
-105 -19 -13 -32 -33 -39 -61 -14 -54 -32 -60 -81 -28 -62 41 -165 45 -116 5
8 -7 18 -26 21 -43 9 -39 -11 -60 -59 -61 -53 -1 -71 21 -72 91 -1 31 -2 63
-3 70 -1 7 -16 12 -39 12 -44 0 -62 14 -62 48 0 62 50 82 93 37 l23 -26 28 22
c38 30 92 21 128 -23 18 -21 28 -27 28 -18 0 9 -5 21 -12 28 -18 18 -11 80 13
119 l22 35 -28 22 c-32 25 -35 54 -16 123 8 31 20 47 41 58 34 18 35 20 15 68
-16 38 -34 50 -56 36 -8 -5 -32 -14 -54 -20 -22 -7 -34 -14 -28 -16 8 -3 3
-13 -15 -27 -40 -34 -69 -40 -97 -22 -36 24 -32 50 10 65 45 16 46 47 4 87
-17 16 -38 44 -45 62 -10 22 -21 32 -37 32 -40 0 -50 -14 -44 -62 4 -28 1 -49
-7 -61 -12 -16 -16 -12 -35 32 -11 27 -21 60 -21 73 0 30 33 67 72 80 26 9 29
14 26 47 -3 40 15 51 51 32 17 -9 26 -6 53 17 18 16 45 32 61 36 20 5 27 13
27 29 0 13 -5 28 -11 34 -5 5 -10 25 -9 44 6 185 16 375 22 419 3 21 -1 26
-27 28 -38 5 -55 19 -55 46 0 23 31 56 53 56 7 0 23 -7 36 -16 22 -16 24 -15
51 15 33 35 46 38 78 15z m-548 -9 c16 -20 5 -62 -21 -75 -28 -16 -79 -3 -79
19 0 25 45 71 68 71 11 0 25 -7 32 -15z m5874 -5 c40 -25 50 -44 35 -72 -9
-17 -17 -20 -54 -15 -30 5 -46 2 -54 -7 -27 -32 -91 -21 -146 24 -22 18 -18
57 5 70 25 14 85 -3 94 -25 9 -24 33 -17 56 15 12 17 23 30 25 30 2 0 19 -9
39 -20z m-286 -189 c9 -5 12 -27 10 -72 -3 -64 -3 -64 -33 -64 l-30 0 1 64 c2
71 18 94 52 72z m-461 -26 c23 -16 46 -119 37 -165 -2 -14 0 -32 5 -40 9 -13
14 -12 43 4 26 16 49 19 117 18 92 -2 121 -16 121 -58 0 -28 28 -45 59 -37 12
3 33 0 47 -7 33 -18 33 -69 0 -107 -23 -27 -25 -27 -43 -11 -53 48 -120 43
-148 -11 -14 -29 -14 -31 10 -55 14 -14 25 -30 25 -35 0 -7 21 -9 58 -5 55 6
60 5 105 -30 26 -20 51 -36 55 -36 5 0 25 16 47 35 l38 35 -21 23 c-12 13 -22
26 -22 28 0 13 37 5 55 -11 30 -26 65 -42 80 -36 8 3 15 20 17 38 3 29 7 33
35 36 42 4 55 -30 24 -59 -24 -23 -24 -20 -11 -54 14 -36 -1 -59 -47 -78 -39
-16 -83 -51 -83 -67 0 -5 8 -16 17 -25 15 -16 17 -16 32 4 9 11 28 22 43 25
23 4 29 0 34 -21 5 -18 2 -28 -10 -35 -20 -11 -21 -34 -2 -45 30 -18 27 -48
-11 -101 -44 -60 -66 -71 -95 -46 -19 18 -20 18 -34 -1 -8 -10 -14 -22 -14
-25 0 -4 -10 -12 -22 -19 -20 -10 -23 -18 -20 -65 3 -36 -1 -57 -10 -64 -7 -6
-34 -29 -59 -51 -25 -22 -68 -51 -95 -63 -43 -20 -49 -26 -46 -50 3 -22 -2
-29 -23 -34 -21 -5 -33 0 -56 22 -16 15 -28 33 -26 39 4 10 7 11 42 14 45 3
-17 134 -71 147 -20 5 -32 0 -57 -23 -46 -43 -81 -49 -105 -19 -13 17 -31 26
-58 28 -37 3 -39 5 -44 42 -7 56 -29 66 -74 31 -34 -26 -48 -55 -26 -55 6 0
21 -12 33 -26 13 -14 43 -36 67 -48 63 -30 72 -61 34 -110 -16 -20 -34 -36
-40 -36 -17 0 -46 -68 -39 -90 5 -15 15 -20 39 -20 34 0 59 20 70 55 3 11 15
26 27 33 18 12 26 10 58 -11 21 -14 53 -48 71 -77 30 -46 32 -55 23 -85 -8
-26 -8 -38 3 -52 19 -26 17 -53 -3 -53 -25 0 -36 10 -51 44 -12 27 -15 28 -58
21 -26 -4 -59 -2 -80 5 -46 15 -51 8 -24 -30 22 -30 22 -35 9 -88 -24 -103
-56 -137 -113 -121 -17 5 -36 4 -48 -2 -15 -8 -26 -5 -52 18 -19 15 -53 39
-75 53 -45 26 -61 61 -41 85 16 20 28 19 75 -5 21 -11 41 -18 43 -15 3 3 -2
32 -11 65 -14 49 -15 72 -6 134 7 53 7 81 -1 95 -5 11 -10 46 -9 78 1 100 -7
247 -15 269 -6 17 -1 27 28 49 30 23 36 34 36 65 0 39 12 55 45 62 16 3 20 11
20 45 0 29 7 48 23 65 14 15 22 37 22 58 0 18 7 41 15 50 21 23 11 44 -28 61
-31 14 -32 16 -35 84 -3 89 18 128 78 146 32 10 45 10 65 -1 21 -11 28 -11 38
-1 9 11 9 15 0 18 -28 10 -63 46 -63 64 0 10 -11 29 -25 41 -34 30 -42 79 -19
131 28 67 58 82 101 52z m330 -20 c2 -6 -6 -16 -18 -23 -25 -16 -45 -3 -35 23
6 18 47 17 53 0z m-6089 -57 c7 -7 12 -24 12 -39 0 -18 6 -30 18 -33 11 -4 29
-18 42 -31 l24 -25 -21 -28 c-24 -32 -71 -42 -89 -17 -7 9 -10 31 -7 50 4 26
1 35 -18 48 -22 16 -23 17 -6 52 18 38 26 42 45 23z m650 -41 c29 -27 30 -84
1 -121 -23 -30 -42 -32 -92 -11 -27 11 -36 12 -40 2 -4 -12 55 -69 105 -99 17
-11 28 -26 28 -40 0 -50 -27 -58 -85 -23 -47 27 -85 33 -85 13 0 -9 -3 -8 -10
2 -5 8 -7 25 -3 38 3 15 -3 33 -21 56 -30 40 -33 63 -9 68 14 3 17 12 15 45
-4 44 13 63 55 63 10 0 36 9 57 20 41 20 47 19 84 -13z m6460 -6 c28 -49 27
-54 0 -45 -42 12 -58 33 -46 60 15 32 21 31 46 -15z m-6919 -70 c15 -28 -9
-57 -35 -43 -49 29 -50 30 -29 46 27 21 52 20 64 -3z m5475 -20 c21 -23 14
-41 -15 -41 -22 0 -34 22 -25 45 7 20 19 19 40 -4z m-3329 -11 c3 -5 -1 -10
-9 -10 -9 0 -16 5 -16 10 0 6 4 10 9 10 6 0 13 -4 16 -10z m11 -76 c-3 -8 -1
-14 5 -14 6 0 7 -5 3 -11 -10 -17 -37 39 -29 59 6 16 7 15 17 -1 5 -10 7 -25
4 -33z m4379 13 c33 -51 -20 -129 -76 -112 -40 13 -17 109 31 128 25 9 29 8
45 -16z m-4391 -63 c4 -10 1 -14 -6 -12 -15 5 -23 28 -10 28 5 0 13 -7 16 -16z
m-2091 -32 c10 -4 24 -20 32 -35 12 -24 12 -29 0 -34 -22 -8 -46 4 -52 27 -3
11 -14 22 -24 25 -11 4 -17 11 -14 16 7 10 32 11 58 1z m438 -105 c-9 -9 -14
-8 -21 3 -7 11 -5 19 8 28 14 11 18 10 20 -4 2 -9 -1 -21 -7 -27z m-105 -32
c16 -14 41 -25 57 -25 34 0 36 -24 3 -45 -18 -12 -30 -13 -50 -6 -14 6 -26 8
-26 5 0 -13 -28 17 -32 34 -5 17 7 62 15 62 2 0 17 -11 33 -25z m5032 -86 c4
-19 -27 -34 -41 -20 -14 14 0 43 20 39 10 -2 19 -10 21 -19z m-5367 -79 c10
-6 19 -20 19 -30 0 -29 -46 -27 -53 2 -10 36 1 45 34 28z m1777 -12 c16 -16
15 -45 -2 -51 -8 -3 -22 3 -31 13 -30 33 2 69 33 38z m-1790 -116 c15 -10 36
-22 47 -26 28 -10 1 -26 -47 -26 -39 0 -65 27 -54 56 7 19 23 18 54 -4z m1619
-14 c-3 -8 -6 -5 -6 6 -1 11 2 17 5 13 3 -3 4 -12 1 -19z m-1919 0 c5 -7 13
-24 17 -38 4 -14 16 -31 26 -38 11 -7 19 -19 19 -26 0 -18 27 -40 53 -41 25
-2 89 -73 85 -95 -2 -8 -15 -16 -30 -18 -20 -2 -35 6 -59 33 -18 20 -50 46
-71 57 -32 19 -37 26 -36 56 1 27 -5 39 -25 54 -29 21 -34 37 -15 56 15 15 23
15 36 0z m1992 -223 c10 -12 9 -20 -4 -40 -23 -35 -56 -34 -56 3 0 46 35 68
60 37z m520 -29 c0 -8 -7 -16 -15 -20 -10 -4 -15 1 -15 14 0 11 7 20 15 20 8
0 15 -6 15 -14z m-2401 -44 c20 -22 44 -43 53 -48 15 -8 10 -14 -35 -36 -28
-15 -69 -32 -89 -39 -22 -7 -41 -22 -44 -33 -4 -11 -14 -28 -24 -39 -18 -18
-18 -18 -25 2 -4 14 0 30 13 46 16 20 18 32 11 67 -4 24 -8 51 -9 61 0 29 37
57 77 57 29 0 43 -7 72 -38z m593 -14 c-15 -15 -26 -4 -18 18 5 13 9 15 18 6
9 -9 9 -15 0 -24z m1076 -110 c16 -16 15 -38 -2 -38 -18 0 -39 27 -31 40 8 13
18 13 33 -2z m4776 -70 c16 -26 -2 -48 -52 -65 -59 -19 -86 -14 -90 17 -3 36
11 52 54 60 54 11 75 8 88 -12z m-5744 -17 c0 -6 -4 -13 -10 -16 -5 -3 -10 1
-10 9 0 9 5 16 10 16 6 0 10 -4 10 -9z m5550 -75 c0 -8 -5 -18 -10 -21 -17
-11 -40 3 -34 20 8 19 44 20 44 1z m-3755 -116 c-5 -8 -11 -8 -17 -2 -6 6 -7
16 -3 22 5 8 11 8 17 2 6 -6 7 -16 3 -22z m-1617 8 c9 -9 7 -14 -6 -24 -23
-17 -48 2 -31 22 14 17 22 17 37 2z m-836 -15 c31 -28 15 -103 -23 -103 -16 0
-59 48 -59 65 0 50 46 71 82 38z m537 -31 c13 -25 -1 -43 -40 -51 -26 -5 -38
-15 -52 -44 -20 -44 -41 -47 -59 -10 -7 15 -22 29 -33 31 -37 6 -74 24 -79 39
-18 47 57 79 105 44 33 -24 43 -26 61 -8 39 39 76 38 97 -1z m471 -12 c5 0 9
-32 8 -70 0 -59 -4 -72 -20 -81 -24 -13 -55 -3 -68 21 -7 12 -5 32 7 66 19 60
32 77 50 69 8 -3 19 -5 23 -5z m645 -50 c8 -38 -2 -70 -31 -92 -12 -10 -26
-27 -29 -38 -5 -16 -12 -19 -33 -14 -59 14 -67 41 -22 67 17 10 33 30 36 45
11 46 24 62 49 62 18 0 25 -7 30 -30z m-1376 -39 c36 -45 39 -66 12 -81 -34
-18 -71 -11 -97 17 -50 54 -40 103 21 103 27 0 40 -8 64 -39z m5721 32 c-1
-19 -18 -32 -53 -38 -39 -8 -51 7 -25 33 13 13 78 17 78 5z m-5240 -96 c0 -25
-17 -47 -37 -47 -13 0 -19 51 -6 63 16 17 43 6 43 -16z m878 -118 c4 -56 -10
-65 -133 -81 -31 -5 -30 29 1 55 15 12 41 36 58 54 27 29 33 31 51 19 12 -8
21 -26 23 -47z m3492 28 c0 -8 -10 -23 -23 -35 -18 -17 -26 -19 -35 -10 -18
18 -14 34 11 46 31 15 47 14 47 -1z m1698 -43 c32 -22 28 -38 -22 -89 -49 -49
-57 -52 -76 -30 -7 8 -16 12 -21 9 -10 -6 3 31 26 77 13 25 41 45 65 48 3 1
16 -6 28 -15z m-6804 -103 c14 -28 27 -65 28 -83 1 -18 10 -47 20 -64 16 -27
16 -33 4 -43 -11 -9 -17 -8 -30 4 -9 9 -16 24 -17 33 0 9 -24 35 -52 58 -63
49 -69 73 -28 114 16 17 34 30 39 30 6 0 22 -22 36 -49z m6180 6 c16 -24 -5
-51 -41 -55 -38 -4 -83 14 -83 33 0 8 -6 15 -12 15 -17 0 21 25 57 37 32 12
60 1 79 -30z m-6064 -6 c6 -16 10 -37 8 -46 -2 -15 -7 -13 -30 9 -30 27 -36
51 -15 59 22 9 24 8 37 -22z m5057 -24 c11 -24 66 -36 78 -17 11 18 51 11 71
-12 22 -25 38 -57 52 -103 17 -57 76 -43 88 21 6 35 17 40 59 28 21 -5 55 -73
55 -111 0 -31 10 -53 24 -53 18 0 36 -44 29 -70 -4 -13 -16 -23 -34 -27 -24
-4 -27 -8 -18 -19 9 -11 8 -14 -5 -14 -9 0 -16 3 -16 8 0 11 -63 46 -85 47
-14 0 -20 7 -20 25 0 21 -9 27 -65 46 -35 13 -67 21 -71 18 -4 -2 -20 7 -36
21 -46 41 -52 45 -61 45 -14 0 -48 42 -65 80 -26 58 -47 112 -47 121 0 16 58
-13 67 -34z m-4157 13 c0 -11 -7 -20 -15 -20 -8 0 -15 9 -15 20 0 11 7 20 15
20 8 0 15 -9 15 -20z m1425 -2 c-5 -13 -7 -46 -6 -74 2 -62 -12 -77 -66 -72
-38 3 -38 3 -41 49 -4 54 14 79 58 79 19 0 29 6 33 20 3 11 11 20 17 20 8 0
10 -7 5 -22z m4413 -3 c-3 -3 -9 2 -12 12 -6 14 -5 15 5 6 7 -7 10 -15 7 -18z
m-6493 -1 c18 -19 16 -33 -7 -48 -22 -13 -48 9 -48 40 0 29 30 33 55 8z m439
-40 c22 -9 20 -50 -4 -74 -47 -47 -93 3 -54 58 16 23 30 27 58 16z m5395 -57
c5 -7 12 -29 16 -49 7 -36 5 -38 -29 -55 -44 -21 -66 -11 -82 35 -5 18 -15 37
-22 44 -7 7 -12 17 -12 23 0 14 117 16 129 2z m-521 -17 c50 -31 40 -50 -29
-56 -35 -4 -40 -1 -55 27 -13 26 -14 33 -2 40 21 14 51 10 86 -11z m683 -71
c16 -17 27 -35 24 -39 -3 -4 7 -29 21 -54 30 -53 25 -59 -50 -60 -32 -1 -43
-6 -51 -23 -5 -13 -14 -23 -18 -23 -5 0 -21 -9 -36 -19 -39 -28 -61 -18 -98
45 -37 63 -25 72 38 28 60 -41 106 -23 148 59 17 34 17 37 1 52 -9 8 -21 15
-27 15 -6 0 -17 8 -24 17 -8 9 -9 14 -3 10 7 -4 14 0 18 8 8 23 25 18 57 -16z
m-373 -28 c5 -51 29 -82 58 -75 21 6 24 3 24 -24 0 -23 11 -43 42 -74 23 -24
47 -52 53 -63 9 -17 21 -20 90 -20 44 0 90 3 103 7 15 5 24 4 26 -5 19 -65 31
-99 39 -104 5 -3 24 11 43 31 18 20 40 36 48 36 9 0 19 1 24 3 4 1 10 -17 13
-41 5 -39 3 -44 -22 -59 -31 -18 -43 -39 -29 -48 4 -3 19 9 33 26 42 54 127
40 127 -21 0 -29 -18 -50 -65 -71 -23 -11 -30 -21 -30 -43 0 -18 7 -32 18 -37
9 -5 24 -13 34 -17 9 -4 20 -18 24 -30 7 -19 6 -20 -15 -13 -35 14 -96 58 -89
65 4 3 -7 7 -23 7 -17 1 -22 3 -11 6 20 5 22 14 5 31 -17 17 -41 15 -34 -3 8
-22 -10 -19 -94 19 -181 81 -248 110 -295 126 -27 10 -79 31 -115 48 -36 16
-80 33 -99 37 -31 7 -254 115 -248 121 1 1 5 3 10 3 21 2 67 33 67 46 0 23 39
38 83 32 21 -3 54 -3 73 0 31 5 34 8 34 41 0 27 8 44 32 69 40 41 62 39 66 -6z
m-4010 4 c24 -52 6 -90 -40 -83 -18 2 -24 10 -26 35 -6 65 43 100 66 48z
m-1744 -1 c21 -8 20 -53 -1 -76 -15 -17 -16 -23 -3 -61 20 -56 44 -59 86 -13
55 60 108 38 78 -33 -8 -18 -14 -46 -14 -62 0 -37 -33 -59 -86 -59 -23 0 -56
-8 -72 -17 -27 -16 -31 -16 -54 -1 -13 9 -30 33 -36 54 -18 59 -49 104 -72
104 -29 0 -60 35 -60 68 0 32 16 52 41 52 10 0 30 11 45 25 22 20 37 25 80 25
29 0 59 -3 68 -6z m5599 -40 c-7 -20 -40 -17 -47 3 -5 11 0 22 11 31 15 11 20
10 30 -4 6 -9 9 -22 6 -30z m-5918 22 c16 -12 17 -16 6 -30 -15 -18 -47 -21
-56 -6 -7 11 12 50 23 50 5 0 17 -6 27 -14z m2505 -26 c0 -11 -4 -20 -10 -20
-5 0 -10 9 -10 20 0 11 5 20 10 20 6 0 10 -9 10 -20z m4256 -35 c8 -31 -2 -58
-19 -53 -17 6 -36 48 -30 64 9 24 42 16 49 -11z m474 5 c14 -25 8 -34 -30 -50
-50 -21 -72 13 -37 58 15 19 55 14 67 -8z m-262 -18 c3 -20 0 -23 -20 -20 -15
2 -24 11 -26 26 -3 20 0 23 20 20 15 -2 24 -11 26 -26z m76 19 c10 -16 -5 -41
-24 -41 -10 0 -20 6 -23 14 -10 25 33 50 47 27z m-1579 -11 c3 -5 1 -10 -4
-10 -6 0 -11 5 -11 10 0 6 2 10 4 10 3 0 8 -4 11 -10z m-3021 -62 c5 -24 2
-29 -31 -43 -21 -9 -46 -21 -55 -26 -20 -10 -52 -12 -61 -3 -11 11 67 45 91
41 20 -4 23 -1 20 22 -3 30 10 57 22 44 4 -4 10 -20 14 -35z m-2470 17 c3 -9
-2 -24 -12 -35 -9 -11 -19 -41 -22 -67 -7 -67 -30 -77 -75 -33 -37 36 -55 92
-38 119 9 14 52 25 119 29 12 1 24 -5 28 -13z m2601 -16 c0 -7 -8 -15 -17 -17
-18 -3 -25 18 -11 32 10 10 28 1 28 -15z m-458 -51 c13 -12 23 -29 24 -37 0
-10 2 -11 6 -4 3 10 9 10 23 0 15 -9 22 -9 32 1 17 17 65 15 71 -3 8 -19 -48
-30 -108 -22 -31 5 -45 3 -48 -7 -3 -7 -23 -17 -44 -21 -21 -4 -43 -11 -50
-17 -7 -5 -18 -8 -25 -5 -9 4 -6 8 8 12 21 7 62 71 51 81 -9 9 11 44 25 44 7
0 22 -10 35 -22z m3158 3 c3 -5 1 -12 -4 -15 -5 -3 -11 1 -15 9 -6 16 9 21 19
6z m-5215 -86 c44 -23 54 -48 30 -78 -43 -55 -124 14 -83 72 17 25 16 25 53 6z
m1210 -18 c24 -19 50 -60 50 -79 0 -9 -9 -22 -20 -28 -28 -15 -79 33 -87 83
-5 34 -4 37 18 37 13 0 31 -6 39 -13z m6330 -53 c0 -8 -4 -14 -10 -14 -5 0
-10 9 -10 21 0 11 5 17 10 14 6 -3 10 -13 10 -21z m-7472 -82 c14 -21 13 -22
-16 -22 -37 0 -68 35 -50 57 9 11 14 11 31 0 11 -7 27 -23 35 -35z m1662 34
c-41 -24 -112 -56 -121 -56 -5 0 -26 -11 -47 -24 -20 -12 -48 -26 -62 -31 -14
-4 -34 -13 -45 -19 -31 -19 -67 -26 -63 -13 5 17 225 124 270 132 21 4 40 11
44 16 3 5 15 9 27 9 21 0 21 -1 -3 -14z m3100 10 c0 -2 -3 -11 -6 -20 -9 -23
-34 -20 -34 4 0 13 7 20 20 20 11 0 20 -2 20 -4z m-4882 -47 c-2 -6 -8 -10
-13 -10 -5 0 -11 4 -13 10 -2 6 4 11 13 11 9 0 15 -5 13 -11z m467 -10 c9 -26
-26 -65 -49 -56 -16 6 -23 57 -9 70 15 15 52 6 58 -14z m508 -14 c15 -14 27
-31 27 -37 0 -7 10 -22 22 -35 26 -28 13 -52 -18 -35 -30 17 -72 65 -74 87 -6
53 3 56 43 20z m-990 -62 c3 -15 1 -35 -3 -43 -4 -8 -6 -36 -3 -62 7 -57 -8
-83 -38 -68 -10 6 -24 20 -30 31 -9 17 -7 27 10 50 12 15 21 43 21 62 0 54 34
77 43 30z m857 12 c6 -8 9 -23 5 -35 -11 -36 -65 -19 -65 21 0 28 40 38 60 14z
m1490 0 c0 -8 -9 -15 -20 -15 -20 0 -26 11 -13 23 12 13 33 7 33 -8z m-675
-14 c3 -5 1 -13 -5 -16 -15 -9 -43 3 -35 15 8 13 32 13 40 1z m-235 -30 c0 -8
-144 -111 -155 -111 -4 0 -150 -115 -185 -146 -54 -48 -130 -126 -130 -134 0
-5 -15 -24 -32 -43 -31 -32 -52 -63 -89 -131 l-16 -29 -6 24 c-4 15 -18 29
-37 36 -34 13 -42 51 -14 74 13 10 20 10 45 -5 38 -22 56 -15 75 29 16 39 131
165 151 165 27 0 47 84 22 92 -16 5 76 98 97 98 9 0 34 16 55 35 45 41 50 42
74 15 10 -11 24 -20 32 -20 19 0 55 22 71 43 14 18 42 24 42 8z m-1226 -16 c3
-8 1 -15 -3 -15 -5 0 -11 7 -15 15 -3 8 -1 15 3 15 5 0 11 -7 15 -15z m4246
-24 c0 -12 -29 -35 -36 -28 -11 10 5 37 21 37 8 0 15 -4 15 -9z m-1650 -26 c0
-8 -4 -15 -10 -15 -5 0 -10 7 -10 15 0 8 5 15 10 15 6 0 10 -7 10 -15z m-1940
-24 c16 -31 12 -79 -7 -90 -30 -16 -53 5 -53 47 0 57 38 84 60 43z m1570 -145
c0 -27 -28 -43 -36 -21 -9 21 3 45 21 45 9 0 15 -9 15 -24z m2746 13 c10 -17
-13 -36 -27 -22 -12 12 -4 33 11 33 5 0 12 -5 16 -11z m-3328 -81 c-3 -7 -11
-13 -18 -13 -7 0 -15 6 -17 13 -3 7 4 12 17 12 13 0 20 -5 18 -12z m-678 -60
c0 -5 -11 -8 -25 -8 -29 0 -33 15 -8 29 17 9 32 -1 33 -21z m5830 22 c0 -5 -9
-10 -20 -10 -11 0 -20 5 -20 10 0 6 9 10 20 10 11 0 20 -4 20 -10z m397 -28
c16 -22 16 -41 -1 -48 -19 -7 -96 33 -96 50 0 30 74 28 97 -2z m-908 -46 c9
-10 8 -15 -4 -20 -17 -6 -45 2 -45 13 0 23 32 28 49 7z m-826 -11 c-4 -15 -36
-12 -41 3 -3 9 3 13 19 10 13 -1 23 -7 22 -13z m1530 0 c-4 -15 -36 -12 -41 3
-3 9 3 13 19 10 13 -1 23 -7 22 -13z m134 -75 c12 -19 27 -40 32 -46 23 -28
21 -51 -8 -78 -16 -16 -34 -25 -40 -22 -6 4 -20 1 -31 -6 -18 -11 -23 -10 -41
12 -15 18 -19 35 -15 64 2 21 0 49 -6 62 -18 39 -4 56 44 52 36 -3 46 -8 65
-38z m-2718 -24 c9 -10 9 -16 1 -21 -17 -11 -40 3 -34 20 8 19 18 19 33 1z
m-4085 -112 c12 -11 13 -20 6 -34 -15 -27 -27 -32 -60 -25 -54 12 -33 71 27
74 6 1 19 -6 27 -15z m259 -111 c-7 -61 -36 -123 -48 -104 -6 11 12 78 27 96
4 5 8 22 8 37 0 15 5 28 10 28 6 0 8 -21 3 -57z m1301 28 c8 -12 -20 -22 -39
-15 -19 8 -9 24 15 24 10 0 21 -4 24 -9z m636 -21 c0 -5 -9 -10 -21 -10 -11 0
-17 5 -14 10 3 6 13 10 21 10 8 0 14 -4 14 -10z m-1293 -16 c5 -15 -28 -27
-40 -15 -5 5 -6 14 -2 21 8 13 37 9 42 -6z m2868 -23 c3 -5 1 -13 -5 -16 -15
-9 -43 3 -35 15 8 13 32 13 40 1z m820 -54 c-9 -5 -24 -6 -33 -2 -16 6 -15 8
2 21 15 10 23 11 33 2 12 -10 12 -13 -2 -21z m-4275 -26 c0 -23 -16 -36 -25
-21 -9 14 1 40 15 40 5 0 10 -9 10 -19z m5068 -3 c-5 -15 -48 -24 -48 -10 0
14 12 22 33 22 10 0 17 -5 15 -12z m-5178 -19 c0 -6 -12 -41 -26 -77 -14 -37
-35 -92 -46 -122 -12 -30 -29 -63 -38 -73 -17 -18 -17 -18 -15 5 2 12 12 43
24 69 11 25 18 55 15 66 -4 16 4 31 30 58 22 22 36 45 36 60 0 14 5 25 10 25
6 0 10 -5 10 -11z m5987 -94 c7 -21 -1 -28 -25 -21 -32 10 -36 36 -6 36 13 0
27 -7 31 -15z m273 -79 c0 -8 -5 -18 -10 -21 -17 -11 -40 3 -34 20 8 19 44 20
44 1z m-6180 -95 c0 -6 -4 -13 -10 -16 -5 -3 -10 1 -10 9 0 9 5 16 10 16 6 0
10 -4 10 -9z m2178 -8 c4 -16 -22 -27 -43 -19 -22 8 -6 38 18 34 11 -2 22 -9
25 -15z m-1318 -8 c0 -16 -45 -21 -54 -6 -8 12 4 21 31 21 14 0 23 -6 23 -15z
m668 -42 c2 -8 -6 -13 -22 -13 -28 0 -43 15 -24 23 20 8 41 3 46 -10z m1400 0
c2 -8 -6 -13 -22 -13 -28 0 -43 15 -24 23 20 8 41 3 46 -10z m830 -42 c-3 -10
-12 -15 -28 -13 -33 4 -38 11 -17 27 23 17 49 8 45 -14z m792 -61 c0 -13 -32
-28 -47 -23 -26 9 -13 33 17 33 17 0 30 -4 30 -10z m-4750 -9 c0 -6 -4 -13
-10 -16 -5 -3 -10 1 -10 9 0 9 5 16 10 16 6 0 10 -4 10 -9z m5545 -41 c0 -22
-39 -19 -43 3 -3 15 1 18 20 15 12 -2 23 -10 23 -18z m-6217 -43 c2 -20 -1
-37 -5 -37 -18 0 -33 25 -33 53 0 22 4 28 18 25 12 -2 18 -14 20 -41z m7532 7
c0 -9 -7 -14 -17 -12 -25 5 -28 28 -4 28 12 0 21 -6 21 -16z m-7292 -166 c19
-19 14 -28 -12 -28 -27 0 -41 14 -31 30 8 14 28 13 43 -2z m3050 -25 c2 -8 -6
-13 -22 -13 -17 0 -26 5 -26 16 0 19 41 16 48 -3z m-1329 -26 c6 -8 8 -17 4
-20 -12 -12 -53 -7 -53 6 0 28 30 37 49 14z m-1834 -44 c-3 -16 -15 -37 -26
-48 -17 -17 -21 -18 -29 -5 -16 25 -11 48 12 64 35 25 51 21 43 -11z m2495 2
c0 -15 -43 -12 -48 3 -3 10 4 13 22 10 15 -2 26 -7 26 -13z m-1233 -31 c5 -15
-28 -27 -40 -15 -5 5 -6 14 -2 21 8 13 37 9 42 -6z m2681 -16 c3 -13 -3 -18
-22 -18 -27 0 -41 14 -31 31 10 16 49 6 53 -13z m810 -25 c2 -9 -7 -13 -27
-13 -21 0 -31 5 -31 16 0 19 51 16 58 -3z m2042 -7 c0 -15 -37 -32 -47 -22 -3
3 -3 12 0 21 8 19 47 20 47 1z m-6610 -22 c0 -30 -21 -53 -69 -78 -53 -26 -61
-25 -61 10 0 16 10 28 28 38 16 8 34 22 41 30 18 21 61 21 61 0z m670 -4 c0
-23 -10 -26 -28 -8 -18 18 -15 28 8 28 13 0 20 -7 20 -20z m4696 -61 c10 -17
-17 -29 -39 -17 -16 8 -17 12 -6 19 19 12 36 11 45 -2z m-4960 -100 c10 -17
-13 -36 -27 -22 -12 12 -4 33 11 33 5 0 12 -5 16 -11z m-408 -24 c40 0 21 -73
-30 -116 -27 -23 -29 -28 -17 -46 11 -18 10 -24 -1 -38 -13 -16 -15 -15 -32 5
-10 12 -18 29 -18 38 0 8 -8 24 -17 34 -16 18 -16 22 1 71 21 60 31 69 66 59
14 -3 35 -6 48 -7z m7132 -65 c0 -25 -29 -38 -40 -20 -6 9 -2 19 8 27 24 18
32 16 32 -7z m-4560 -54 c0 -19 -14 -28 -34 -20 -13 5 -14 9 -5 20 15 18 39
18 39 0z m-2425 -27 c10 -15 -1 -22 -24 -14 -12 3 -19 11 -16 16 8 12 32 11
40 -2z m1110 2 c10 -17 -34 -34 -51 -20 -12 10 -12 14 -2 20 18 12 46 11 53 0z
m604 -15 c18 -22 -19 -40 -44 -22 -18 13 -18 14 1 24 25 15 29 15 43 -2z
m1376 -16 c0 -8 -11 -17 -24 -18 -27 -4 -47 18 -28 30 19 13 52 5 52 -12z
m808 -44 c8 -19 -1 -26 -33 -26 -32 0 -41 7 -33 26 3 8 18 14 33 14 15 0 30
-6 33 -14z m-3193 -36 c0 -5 -9 -10 -20 -10 -11 0 -20 5 -20 10 0 6 9 10 20
10 11 0 20 -4 20 -10z m3985 -70 c0 -18 -43 -26 -57 -12 -16 16 2 33 30 30 16
-2 27 -9 27 -18z m819 -68 c2 -4 1 -14 -3 -21 -11 -17 -51 -5 -51 15 0 15 45
20 54 6z m766 -91 c0 -5 -7 -14 -15 -21 -12 -10 -19 -10 -28 -1 -9 9 -9 14 3
21 19 12 40 13 40 1z m-5930 -76 c0 -8 -2 -15 -4 -15 -2 0 -6 7 -10 15 -3 8
-1 15 4 15 6 0 10 -7 10 -15z m2283 -1 c12 -12 -6 -34 -28 -34 -26 0 -40 14
-30 30 7 11 48 14 58 4z m-1335 -45 c2 -9 -4 -19 -12 -22 -19 -8 -51 17 -42
32 11 17 50 9 54 -10z m640 -18 c-4 -22 -52 -21 -56 1 -2 9 4 18 15 20 27 6
44 -3 41 -21z m-1093 -60 c7 -12 -12 -24 -25 -16 -11 7 -4 25 10 25 5 0 11 -4
15 -9z m2525 -21 c0 -15 -7 -20 -24 -20 -14 0 -28 5 -31 10 -10 16 4 30 31 30
17 0 24 -5 24 -20z m-3900 -20 c25 -25 25 -34 -2 -59 -17 -17 -24 -18 -36 -9
-21 18 -31 51 -20 71 12 23 33 22 58 -3z m628 1 c3 -8 -1 -12 -9 -9 -7 2 -15
10 -17 17 -3 8 1 12 9 9 7 -2 15 -10 17 -17z m4080 -23 c2 -12 -5 -19 -23 -24
-31 -8 -50 7 -41 31 8 22 60 16 64 -7z m2632 7 c0 -9 -7 -18 -16 -22 -18 -7
-39 11 -30 26 11 17 46 13 46 -4z m-1815 -145 c0 -18 -43 -26 -57 -12 -16 16
2 33 30 30 16 -2 27 -9 27 -18z m-5367 -27 c-10 -13 -14 -12 -25 3 -16 22 4
39 24 22 10 -8 11 -14 1 -25z m6022 -23 c0 -5 -5 -10 -11 -10 -5 0 -7 5 -4 10
3 6 8 10 11 10 2 0 4 -4 4 -10z m-3456 -119 c9 -15 -22 -33 -44 -26 -31 10
-25 35 9 35 17 0 32 -4 35 -9z m-714 -51 c0 -15 -7 -20 -24 -20 -27 0 -41 14
-31 30 3 6 17 10 31 10 17 0 24 -5 24 -20z m-490 -5 c0 -8 -9 -15 -20 -15 -20
0 -26 11 -13 23 12 13 33 7 33 -8z m-1554 -42 c-10 -10 -19 5 -10 18 6 11 8
11 12 0 2 -7 1 -15 -2 -18z m1074 17 c0 -5 -4 -10 -9 -10 -6 0 -13 5 -16 10
-3 6 1 10 9 10 9 0 16 -4 16 -10z m5550 1 c0 -11 -39 -25 -47 -18 -3 3 -2 10
2 16 8 13 45 15 45 2z"/>
<path d="M257 7095 c-25 -18 -21 -29 15 -43 35 -13 55 -3 45 22 -10 25 -40 36
-60 21z"/>
<path d="M336 6574 c-8 -21 -1 -31 29 -36 29 -6 34 12 9 36 -20 20 -30 20 -38
0z"/>
<path d="M5510 7055 c0 -8 2 -15 4 -15 2 0 6 7 10 15 3 8 1 15 -4 15 -6 0 -10
-7 -10 -15z"/>
<path d="M5335 7010 c-3 -5 3 -10 14 -10 12 0 21 5 21 10 0 6 -6 10 -14 10 -8
0 -18 -4 -21 -10z"/>
<path d="M5617 6787 c-3 -8 -1 -20 3 -27 11 -18 41 5 33 26 -7 18 -29 18 -36
1z"/>
<path d="M5707 6633 c-4 -3 -7 -26 -7 -49 0 -41 2 -44 38 -53 46 -14 89 -14
97 -1 12 20 -7 58 -33 65 -14 3 -37 15 -50 26 -27 20 -35 23 -45 12z"/>
<path d="M3164 6213 c-12 -2 -30 -13 -40 -24 -9 -10 -25 -19 -36 -19 -29 0
-21 -15 17 -29 19 -7 35 -16 35 -20 0 -5 31 -12 70 -15 38 -4 72 -11 75 -15 9
-15 -21 -31 -71 -38 -26 -3 -59 -12 -74 -20 -14 -7 -29 -13 -35 -13 -5 0 -27
-18 -49 -41 -28 -30 -35 -44 -27 -52 8 -8 20 -2 44 21 74 72 248 97 270 39 4
-11 -13 -18 -75 -30 -73 -14 -248 -90 -248 -107 0 -13 125 3 143 19 20 17 22
16 53 -36 9 -15 25 -18 90 -18 43 -1 90 -5 102 -9 13 -4 39 -5 59 -1 27 5 38
13 49 41 8 19 18 34 23 34 15 0 18 47 6 77 -7 16 -27 46 -44 65 -37 43 -37 45
-8 68 l22 18 -25 10 c-14 6 -32 17 -39 25 -22 27 -93 55 -156 62 -33 3 -71 8
-85 9 -14 2 -35 2 -46 -1z"/>
<path d="M4105 6171 c-16 -5 -52 -17 -80 -29 -52 -21 -63 -43 -43 -85 6 -11 3
-30 -7 -52 -8 -19 -22 -51 -31 -71 -16 -36 -12 -84 7 -84 6 0 19 5 30 11 24
12 49 -3 49 -30 0 -9 14 -28 32 -43 28 -24 30 -28 13 -28 -31 -1 -58 -25 -43
-37 21 -17 78 -33 93 -27 9 4 15 0 15 -9 0 -20 8 -25 58 -33 53 -8 54 5 2 36
-22 14 -40 30 -40 37 0 6 -12 16 -27 21 l-28 10 28 1 c31 1 34 12 12 45 -14
21 -13 24 14 50 38 36 57 29 64 -24 3 -23 10 -47 15 -52 6 -6 42 -13 81 -16
55 -4 76 -1 95 12 32 20 36 20 36 -1 0 -16 12 -18 89 -21 64 -2 91 0 97 9 4 7
2 15 -4 17 -7 2 -12 12 -12 23 0 11 -12 44 -27 74 -22 42 -33 55 -51 55 -12 0
-25 6 -28 14 -3 7 -24 17 -46 20 -23 4 -46 10 -52 14 -14 9 -36 14 -61 13 -11
0 -28 10 -37 23 l-17 23 112 -2 c128 -2 227 4 227 14 0 13 -67 42 -144 61 -44
10 -82 23 -85 27 -20 27 -63 37 -166 40 -60 1 -123 -2 -140 -6z m337 -258 c47
-26 85 -59 77 -68 -3 -2 -41 14 -86 35 -50 24 -104 42 -139 46 -76 9 -43 23
40 17 39 -2 76 -13 108 -30z"/>
<path d="M3245 5791 l-40 -6 43 -14 c38 -13 43 -18 37 -38 -5 -20 -2 -23 23
-23 43 0 132 29 132 43 0 25 -16 33 -65 34 -27 0 -59 3 -70 5 -11 3 -38 3 -60
-1z"/>
<path d="M4240 5730 c0 -5 9 -10 19 -10 11 0 23 -4 26 -10 9 -15 42 -12 48 4
3 8 -1 17 -9 20 -25 10 -84 7 -84 -4z"/>
<path d="M3432 5298 c-29 -29 -2 -88 39 -88 25 0 79 27 79 40 0 13 -71 60 -90
60 -9 0 -21 -5 -28 -12z"/>
<path d="M3755 5290 c-11 -4 -28 -18 -38 -29 -16 -20 -19 -20 -41 -6 -53 35
-123 0 -82 -40 10 -11 13 -26 9 -45 -5 -26 -2 -31 22 -40 38 -14 87 3 102 35
9 20 8 25 -2 25 -8 0 -17 5 -21 12 -4 7 -3 8 5 4 6 -4 18 -3 25 3 10 9 25 7
57 -5 70 -26 111 -28 138 -7 l23 19 -32 32 c-17 18 -40 37 -50 42 -22 12 -87
12 -115 0z"/>
<path d="M3083 5156 c-28 -16 -63 -59 -63 -79 0 -23 24 -39 38 -25 7 7 12 17
12 23 0 7 9 20 19 29 18 16 35 67 22 65 -3 -1 -16 -6 -28 -13z"/>
<path d="M5250 5150 c0 -5 7 -10 15 -10 8 0 15 5 15 10 0 6 -7 10 -15 10 -8 0
-15 -4 -15 -10z"/>
<path d="M3140 4981 c0 -13 42 -38 102 -62 35 -13 84 -22 143 -25 85 -4 182 2
172 12 -2 2 -50 9 -106 14 -66 6 -134 20 -191 40 -91 31 -120 36 -120 21z"/>
<path d="M4340 4974 c-14 -8 -34 -11 -45 -7 -19 5 -19 5 -2 -15 19 -21 11 -37
-12 -23 -6 4 -35 4 -64 -1 -29 -4 -115 -6 -192 -3 -82 4 -169 1 -210 -5 -38
-6 -105 -12 -147 -13 -43 -1 -79 -6 -80 -12 -4 -13 168 -23 437 -26 175 -2
218 0 255 14 52 19 100 22 100 6 0 -8 5 -8 15 1 22 18 18 53 -7 77 -20 17 -26
18 -48 7z"/>
<path d="M5505 4830 c3 -5 8 -10 11 -10 2 0 4 5 4 10 0 6 -5 10 -11 10 -5 0
-7 -4 -4 -10z"/>
<path d="M5434 4816 c-3 -7 -4 -33 -2 -57 2 -37 8 -46 31 -57 15 -7 37 -10 48
-7 18 6 20 12 14 39 -4 17 -7 40 -6 51 1 33 -74 60 -85 31z"/>
<path d="M3345 4079 c-15 -23 87 -92 216 -148 29 -13 49 -28 52 -41 3 -12 15
-24 26 -27 24 -6 25 -12 10 -47 -9 -19 -9 -29 0 -39 6 -8 9 -21 6 -29 -8 -19
31 -31 56 -17 31 16 59 11 59 -11 0 -32 32 -24 77 20 23 22 48 38 55 35 18 -7
48 15 31 22 -7 2 -13 11 -13 19 0 8 -8 14 -19 14 -10 0 -24 7 -32 16 -17 20 2
34 48 34 17 0 35 5 38 10 3 6 23 10 44 10 27 0 43 7 59 25 12 14 22 28 22 31
0 3 -26 4 -57 2 -41 -2 -57 -7 -55 -16 6 -32 -51 -55 -76 -30 -17 17 -15 26 6
32 10 4 25 21 34 39 l16 33 -42 18 c-22 10 -60 21 -84 24 -23 2 -45 9 -48 13
-7 11 -47 12 -59 1 -12 -10 -323 1 -346 12 -10 4 -20 3 -24 -5z m497 -179
c-13 -10 -30 -16 -37 -13 -24 9 -17 21 10 18 14 -1 25 2 25 6 0 5 6 9 13 9 6
-1 2 -9 -11 -20z m-62 1 c0 -6 -4 -13 -10 -16 -5 -3 -10 -15 -10 -26 0 -24 -6
-24 -33 2 -22 20 -22 21 -3 35 22 16 56 19 56 5z"/>
<path d="M3920 4060 c0 -5 7 -10 15 -10 8 0 15 5 15 10 0 6 -7 10 -15 10 -8 0
-15 -4 -15 -10z"/>
<path d="M3960 4020 c0 -5 9 -10 20 -10 11 0 20 5 20 10 0 6 -9 10 -20 10 -11
0 -20 -4 -20 -10z"/>
<path d="M6831 7026 c-8 -9 -13 -47 -14 -98 l-2 -83 37 -9 c21 -5 41 -7 44 -3
3 3 0 22 -7 42 -13 35 -13 38 14 61 16 13 36 24 46 24 42 0 26 60 -17 66 -10
1 -33 5 -52 9 -27 5 -39 3 -49 -9z"/>
<path d="M7100 6940 c0 -5 5 -10 10 -10 6 0 10 5 10 10 0 6 -4 10 -10 10 -5 0
-10 -4 -10 -10z"/>
<path d="M6652 6881 c2 -7 7 -12 11 -12 12 1 9 15 -3 20 -7 2 -11 -2 -8 -8z"/>
<path d="M6722 6512 c-12 -2 -20 -8 -16 -13 3 -5 10 -7 15 -4 5 4 9 -5 9 -19
0 -32 33 -43 65 -22 14 9 25 20 25 25 0 22 -52 40 -98 33z"/>
<path d="M6665 6500 c3 -5 8 -10 11 -10 2 0 4 5 4 10 0 6 -5 10 -11 10 -5 0
-7 -4 -4 -10z"/>
<path d="M1990 6365 c0 -8 5 -15 10 -15 6 0 10 7 10 15 0 8 -4 15 -10 15 -5 0
-10 -7 -10 -15z"/>
<path d="M1350 5351 c0 -16 -9 -50 -20 -76 -11 -26 -20 -49 -20 -51 0 -2 9 -4
20 -4 12 0 20 7 20 17 0 9 7 24 15 33 9 10 19 30 24 46 7 25 4 32 -15 47 -24
18 -24 18 -24 -12z"/>
<path d="M5990 5136 c0 -16 37 -32 48 -21 7 7 -25 35 -40 35 -4 0 -8 -6 -8
-14z"/>
<path d="M6640 5124 c0 -8 5 -12 10 -9 6 4 8 11 5 16 -9 14 -15 11 -15 -7z"/>
<path d="M6363 4854 c-8 -20 21 -48 42 -41 12 5 14 11 6 26 -14 26 -40 34 -48
15z"/>
<path d="M5862 4614 c2 -11 11 -20 22 -22 13 -3 17 1 14 14 -2 11 -11 20 -22
22 -13 3 -17 -1 -14 -14z"/>
<path d="M5855 4380 c-3 -5 1 -10 9 -10 9 0 16 5 16 10 0 6 -4 10 -9 10 -6 0
-13 -4 -16 -10z"/>
<path d="M6265 3560 c-3 -5 -15 -10 -27 -10 -14 0 -18 -5 -14 -15 3 -8 0 -15
-7 -15 -7 0 -18 -9 -24 -20 -11 -16 -10 -18 2 -14 8 4 15 11 15 17 0 6 3 8 6
4 4 -3 24 1 45 10 21 8 45 13 53 10 16 -6 36 11 36 30 0 16 -76 18 -85 3z"/>
<path d="M6510 3310 c0 -5 5 -10 10 -10 6 0 10 5 10 10 0 6 -4 10 -10 10 -5 0
-10 -4 -10 -10z"/>
<path d="M582 3468 c-17 -17 -15 -38 3 -38 9 0 15 9 15 25 0 29 -1 30 -18 13z"/>
<path d="M7520 2549 c0 -5 5 -7 10 -4 6 3 10 8 10 11 0 2 -4 4 -10 4 -5 0 -10
-5 -10 -11z"/>
<path d="M3574 7975 c-4 -10 1 -25 13 -36 20 -20 20 -20 15 11 -5 36 -19 48
-28 25z"/>
<path d="M7864 6754 c4 -16 8 -31 9 -34 0 -3 -6 -17 -13 -32 -11 -23 -20 -28
-50 -28 -59 0 -71 -15 -59 -80 6 -30 15 -59 19 -64 17 -17 40 15 40 55 0 51
31 76 66 52 13 -8 24 -25 24 -37 0 -43 14 -50 59 -30 l41 18 0 104 0 105 -21
-18 c-18 -17 -24 -17 -52 -6 -68 27 -71 27 -63 -5z"/>
<path d="M7870 5622 c0 -21 18 -42 36 -42 19 0 24 28 8 45 -21 20 -44 19 -44
-3z"/>
<path d="M7475 5039 c-4 -11 -4 -23 -2 -26 9 -8 27 7 27 22 0 23 -18 27 -25 4z"/>
<path d="M7912 4530 c0 -14 2 -19 5 -12 2 6 2 18 0 25 -3 6 -5 1 -5 -13z"/>
<path d="M7315 4490 c-3 -5 1 -10 9 -10 9 0 16 5 16 10 0 6 -4 10 -9 10 -6 0
-13 -4 -16 -10z"/>
<path d="M7830 4220 c0 -5 14 -10 31 -10 17 0 28 4 24 10 -3 6 -17 10 -31 10
-13 0 -24 -4 -24 -10z"/>
<path d="M7340 3405 c0 -33 24 -89 49 -117 12 -12 21 -25 21 -30 0 -4 9 -8 20
-8 26 0 26 25 -1 75 -12 22 -20 41 -18 42 6 4 -52 63 -62 63 -5 0 -9 -11 -9
-25z"/>
<path d="M7330 3200 c0 -5 5 -10 11 -10 5 0 7 5 4 10 -3 6 -8 10 -11 10 -2 0
-4 -4 -4 -10z"/>
<path d="M7931 2981 c-37 -10 -36 -28 1 -33 18 -3 41 -9 51 -13 16 -6 18 -4
15 15 -4 26 -32 39 -67 31z"/>
<path d="M7797 2916 c-3 -8 0 -22 7 -31 11 -15 13 -15 25 -1 15 18 8 46 -13
46 -7 0 -16 -6 -19 -14z"/>
<path d="M0 2735 c0 -15 4 -24 10 -20 13 8 13 32 0 40 -6 4 -10 -5 -10 -20z"/>
<path d="M115 2710 c-23 -36 -27 -39 -51 -30 -34 13 -39 13 -24 -4 6 -8 21
-16 33 -18 18 -2 23 -11 25 -43 4 -46 16 -57 49 -44 14 5 35 9 48 9 16 0 34
14 59 50 57 79 45 107 -39 94 -33 -5 -43 -2 -48 10 -10 26 -25 19 -52 -24z"/>
<path d="M7837 2743 c-4 -3 -7 -30 -7 -59 0 -35 -7 -66 -20 -89 -11 -20 -20
-40 -20 -45 0 -16 52 -12 70 5 15 14 40 19 118 24 16 1 22 7 22 26 0 15 -6 25
-14 25 -19 0 -76 48 -76 64 0 7 -13 22 -30 34 -32 24 -34 25 -43 15z"/>
<path d="M7950 2730 c0 -5 7 -10 15 -10 8 0 15 5 15 10 0 6 -7 10 -15 10 -8 0
-15 -4 -15 -10z"/>
<path d="M292 2622 c-20 -13 33 -72 63 -72 29 0 44 36 24 55 -18 17 -71 27
-87 17z"/>
<path d="M54 2499 c-3 -6 -17 -9 -30 -6 -24 4 -24 3 -24 -74 0 -43 4 -89 10
-103 6 -16 6 -27 0 -31 -6 -4 -10 -28 -10 -56 0 -44 2 -49 22 -49 12 0 29 7
39 16 15 13 15 20 4 58 -13 42 -12 45 14 74 39 42 85 50 123 22 36 -26 53 -21
61 18 4 20 15 33 36 42 34 14 39 31 17 53 -20 20 -104 6 -126 -20 -9 -11 -31
-28 -49 -37 -45 -23 -61 -9 -61 55 0 46 -11 62 -26 38z"/>
<path d="M7883 2497 c-32 -14 -30 -54 2 -69 30 -14 32 -13 38 34 5 41 -6 51
-40 35z"/>
<path d="M7890 2125 c0 -8 -13 -30 -30 -48 -21 -25 -29 -43 -27 -65 2 -29 5
-32 33 -32 50 0 77 28 79 84 1 47 -5 57 -37 69 -12 4 -18 1 -18 -8z"/>
<path d="M88 2119 c-10 -5 -18 -16 -18 -23 0 -12 40 -36 60 -36 14 0 12 44 -2
58 -14 14 -18 14 -40 1z"/>
<path d="M0 1980 c0 -47 1 -49 23 -41 12 5 22 12 23 17 0 5 4 17 9 27 5 12 2
22 -11 32 -34 26 -44 18 -44 -35z"/>
<path d="M7936 1915 c-9 -9 -16 -25 -16 -36 0 -12 -7 -19 -20 -19 -23 0 -25
-15 -8 -52 13 -28 33 -38 56 -30 29 9 68 142 43 142 -5 0 -16 3 -24 6 -8 3
-22 -2 -31 -11z"/>
<path d="M7980 1576 c0 -8 5 -18 10 -21 6 -3 10 3 10 14 0 12 -4 21 -10 21 -5
0 -10 -6 -10 -14z"/>
</g>
</svg>
